<svg xmlns="http://www.w3.org/2000/svg" width="920" height="520" version="1.0" viewBox="0 0 690 390"><path d="M354 139.7c-25.8 1.3-56.8 6-67.5 10.2-8.7 3.3-21.6 10.9-33.9 19.8-11.1 8.1-16.9 10.8-19.8 9.2-1.8-.9-2.4-.8-3.5.7-.7 1-.9 2.2-.5 2.6 1.5 1.5 0 5.9-2.2 6.8-1.1.5-8.4 1.6-16.1 2.5-26.7 3.1-51.5 8-65.5 13.1-4.1 1.4-11.9 4.9-17.3 7.6-8.3 4.1-10.1 5.4-11.3 8.3-.8 1.9-1.4 4.2-1.4 5.1 0 .8-2.4 3.9-5.2 6.7-8 7.9-8.4 9-6.9 20 1 7 1 10.7.1 15.4-1.1 6.5-.2 13.1 2.3 16.2.7.8.7 1.2.2.9-1.2-.8-4.2.8-3.4 1.7.4.3 2.6.9 5 1.3 3.5.6 4.5 1.2 4.7 3 .6 3.8 4.7 5.1 14 4.5 5.7-.4 8.6-.2 9.7.7.8.6 4 2.3 7.2 3.6 3.7 1.5 5 2.4 3.5 2.4-3.4 0-22.2 4-25.7 5.4-3 1.2-3 1.3-.8 2.4 3.6 2 30.2 5.5 63.8 8.6 28.5 2.6 49.8 2.9 82 1.2 34-1.9 43.6-2.8 55-5.6 10.4-2.6 16.4-3.4 90-13 34.1-4.4 68.5-8.5 76.5-9s17-1.2 20-1.6c6.5-.7 16-5.1 15.3-7-.3-.7.6-3.7 2-6.6 1.3-2.9 2.7-6.5 3-7.9.5-2 2.2-3.2 8.1-5.8 9-4 10.4-5.3 8.7-8.4-.9-1.8-.9-4.7.4-14 .8-6.5 1.5-13.3 1.5-15.2 0-4.2-3.4-13.5-6-16.5-1.1-1.2-1.7-2.7-1.4-3.1.3-.5-.1-.9-.8-.9-.7 0-3-2.4-5.1-5.3l-3.8-5.2-18 .8c-17.2.8-18 .7-20.6-1.2-3.4-2.8-5.9-2.6-8.9.4-2.3 2.3-3.5 2.5-17.2 3.5-19.7 1.3-23.2 1.3-23.2-.3 0-.6-.7-2.5-1.5-4.1-.9-1.6-1.4-3-1.3-3.1.3-.3 28-2.1 44.8-3 14.5-.8 14.8-.9 15.5-4.9 2.1-11-19.9-28-44.2-34.2-9.9-2.5-33.7-5-38.6-4-1.6.3-3.6.2-4.5-.3-1-.5-6.3-.4-12.2 0-18 1.6-24.7 1.8-53.5 2.2-30.5.4-29.6-.4 2.5-2.3 17.6-1 33.7-.8 35.9.4.3.2 4.7-.5 9.6-1.5 5-1 11.9-1.9 15.5-2l6.5-.2-5-.7c-4.7-.8-44.4-1-56.5-.3zm-31 9.4c-1.9.5-6.2 1.1-9.5 1.4-12.4.9-18.5 1.7-18.5 2.5 0 .5-1.3 1.1-3 1.5-1.6.4-3 1-3 1.4 0 .3-1.6 1.5-3.5 2.5-1.9 1.1-3.5 2.3-3.5 2.8 0 .4-4.6 3.8-10.2 7.4C260.3 176 248 185 248 186.1c0 .4 1 .9 2.2 1.2 1.2.4 1.9.9 1.6 1.2-.8.9-7.8-.5-7.8-1.5s21.8-18.7 29-23.7c2.5-1.7 9.2-5.4 15-8.4 11-5.6 15.6-6.5 32.5-6.6 5.5-.1 5.7 0 2.5.8zm-6 4.9c-1.6 1.6-3.4 3-4 3-.6 0 .3-1.4 2-3 1.7-1.7 3.5-3 4-3s-.4 1.3-2 3zm-7.5 5.1c.6 2.6-.3 5.2-5.1 14.9l-5.9 11.7-7.5.5c-4.1.3-8.8.8-10.5 1.2-2.7.5-2.8.5-.5-.4 1.7-.6-2.2-.8-12.3-.7-8.1.1-14.7.1-14.7-.1 0-3.2 17.2-15.2 32.6-22.9 8.2-4.1 16.9-7 21.6-7.2 1.1-.1 1.9 1 2.3 3zm39.9-1.6c4.3.7 8 1.6 8.3 1.9.7.7-2.8 9.6-3.7 9.6-.5 0-1.3-1.3-1.8-2.9-2.1-6-10.4-7.9-15.3-3.5-2.3 2-4.9 10.3-4.9 15.3 0 3-.6 4-3.5 5.8-2.9 1.9-8.5 3.2-8.5 2 0-.2 1.1-4.1 2.5-8.7 2.9-9.8 4.8-13 7.5-13 1.7 0 1.9-.5 1.4-2.5-1.4-5.6 3.2-6.7 18-4zm62.2-.7c1.4.9 3.7 5.2 3.1 5.8-.2.2-1.2-.5-2.2-1.6-2.7-3-9.5-2.7-13.4.6l-3.1 2.6-3-2.5c-3.6-3.1-2.8-3.9 5-4.8 8.2-.9 12.4-1 13.6-.1zm45.4 2.9 7.5 3 1.8 5.8c.9 3.2 1.5 6 1.3 6.3-1.2 1.2-3.6-1-3.6-3.3 0-1.4-1.1-3.7-2.5-5-1.9-2-3.4-2.5-7.7-2.5-6.8 0-9.5 1.9-10.9 7.6-.6 2.4-1.3 4.4-1.5 4.4-.2 0-1.2-.8-2.2-1.8-1.6-1.6-7.2-15.3-7.2-17.5 0-.5 3.9-.7 8.8-.5 6.8.3 10.3 1 16.2 3.5zm-130.2-2c-1 .2-2.6.2-3.5 0-1-.3-.2-.5 1.7-.5s2.7.2 1.8.5zm40 5.8c.2.2-1.8 3.5-4.4 7.4-6 9.1-7.7 8-3.4-2.3 3-7.1 3.3-7.5 5.3-6.5 1.2.7 2.3 1.3 2.5 1.4zm110 7.9c3 2.6 2.8 3.6-.7 3.6-2.2 0-3.1-.6-3.6-2.3-1.9-6.7-2-6.3.1-4.7 1 .8 2.9 2.3 4.2 3.4zm-74.3 4.7c1.9.6-.4.7-6.7.3-5.5-.3-11.2-.1-13 .4-4.2 1.3-12.4 2.5-11.6 1.7.5-.5 3.9-1.2 16.3-3.4 4.4-.8 10.3-.4 15 1zm2.5 3.4c-1.4.8-2.9 1.4-3.5 1.4-.5 0 .1-.6 1.5-1.4 1.4-.8 3-1.4 3.5-1.4.6 0-.1.6-1.5 1.4zm-23.7 2.2c-.7.2-2.1.2-3 0-1-.3-.4-.5 1.2-.5 1.7 0 2.4.2 1.8.5zm111.5 4c-1 .2-2.6.2-3.5 0-1-.3-.2-.5 1.7-.5s2.7.2 1.8.5zm-18.5 1c-.7.2-1.9.2-2.5 0-.7-.3-.2-.5 1.2-.5s1.9.2 1.3.5zm-133.4 2.9c3.8.4 6.1 1.1 6.1 1.9 0 1.4 2.9 2.4 7.5 2.6 2.9.1 2.9.2-1 1.4-2.2.8-5.1 1.4-6.4 1.4-2.1.1-2.2-.1-1-1.6 1.3-1.6 1.1-1.6-1.5.1-2 1.3-4 1.7-7 1.3-5.3-.6-23.7 1.5-51.1 5.7-12.1 1.9-28.3 4-36 4.6-7.7.6-16.8 1.6-20.2 2.1-3.4.6-6.8.9-7.5.7-.6-.2 1.6-2.2 5-4.3 3.4-2.1 6.2-4 6.2-4.3 0-.9-8.3.9-17.8 3.9-5.3 1.8-10.4 3.4-11.2 3.6-1 .3-.8-.1.4-1.1 1.1-.9 1.6-1.6 1-1.6-2.8.1-10.6 2.5-15.8 4.8-5.4 2.4-5.7 2.7-3.5 3.3 2.2.6 2.2.7-.7.8-1.7.1-5.3.8-8 1.6s-6.9 1.5-9.4 1.6c-4 .1-4.1.2-1.5.8 2.8.6 2.3.9-6.3 4.4-10.3 4.1-11.5 4.4-8.6 2.1 1.9-1.6 1.7-1.6-3.4.1-2.3.7-2.3.7-.7-1.9 1.4-2.1 2.6-2.6 6.4-2.7 4.4-.2 4.4-.2 1.1-.8l-3.5-.6 4.6-3.7c2.4-2 7.1-5.3 10.4-7.2 9.3-5.7 5.3-4.2-8.2 3-10.2 5.4-12.9 6.4-15.6 6-2.9-.6-3-.5-.7.4 2 .9 2.2 1.3 1 2.1-4.8 3.2-9.3 4.7-15.4 5.2l-6.8.5 4.3-4.6c4.2-4.4 3-3.7-3.6 2.1-1.6 1.5-3.3 2.7-3.7 2.7-1.4 0-.8-3.1.7-3.6.8-.4 1.3-1 1-1.4-.5-.9 4.9-4.7 11.5-8l4.5-2.2-3 3.2-3 3.3 4.1-2.7c2.2-1.5 4.7-2.4 5.5-2.1.8.2 3.5-1.5 6.1-3.8 4.6-4.3 4.8-4.4 20-7.1 8.4-1.6 19.2-3.6 24.1-4.6 4.8-.9 8.7-1.4 8.7-.9 0 .4-.8 1-1.7 1.3-1 .3.1.4 2.5.2 2.3-.2 4 0 3.6.5-.7 1.1 1 1.1 6.1-.1 10.1-2.3 54.7-7.3 71.5-7.9 25.4-1 52.5-1.2 59.9-.5zm96.9 4c3.8 5.8 1.9 7.6-5.8 5.3-3.1-1-4.4-.9-7.1.5-1.9.9-6.8 2.1-10.9 2.7-11.1 1.4-26.1 3.8-38.5 6.1-6 1.1-12.6 2-14.5 2-1.9-.1-11.1 1.9-20.5 4.3-14.6 3.8-18.2 4.4-25.7 4.2l-8.8-.2 7.8-3.7 7.7-3.6-20.5-.4-20.5-.3 11.5-2.4c7-1.4 16.6-2.5 24.5-2.8 11.5-.4 13.4-.2 16.7 1.5 3.3 1.7 4.7 1.9 11.5 1.1 4.3-.4 9.5-1.1 11.6-1.5 3.1-.5 3.7-.3 3.8 1.3.1 1.6.2 1.6.6.1.6-2.2-.1-2.1 28.3-6.2 32.5-4.8 43-6.8 43-8.1 0-1.1 2-3.5 3-3.5.3 0 1.5 1.6 2.8 3.6zM491 196c0 .5-1.2 1-2.7.9l-2.8-.1 2.5-.8c1.4-.4 2.6-.8 2.8-.9.1-.1.2.3.2.9zm38.4 5c.7.7-1.1 3-5.9 7.5-6.3 5.8-7.4 6.5-11.1 6.5-3.1 0-5.5.9-9.2 3.4l-5 3.3-.6-3.6c-.3-1.9-.2-3.9.3-4.4.5-.5.5-2.2 0-4-1.9-6.5-1.4-7.4 4.3-8.2 17.9-2.5 25.1-2.6 27.2-.5zm-94.9 2c-.3.5-1.6 1-2.8.9-2.1 0-2.1-.1-.2-.9 2.8-1.2 3.7-1.2 3 0zm61.5 1.4c0 .7.3 2.8.7 4.6l.6 3.3-13.8-.6c-18.9-.9-19.3-1.6-2.7-5.9 12.2-3.1 15.2-3.4 15.2-1.4zm-235.7 17.3c-1.8.2-4.8.2-6.5 0-1.8-.2-.4-.4 3.2-.4s5 .2 3.3.4zm8 0c-.7.2-1.9.2-2.5 0-.7-.3-.2-.5 1.2-.5s1.9.2 1.3.5zm-12.1 1.6c6.8 0 6.8 1.2.1 2-13.8 1.7-14.1 1.7-10 .8 10.7-2.3-.7-2.4-14.3-.1l-4.5.8 4.4.1c2.4 0 4.1.4 3.8.7-.4.4-6.6.8-13.9 1-8.5.2-11.9 0-9.4-.5 2.1-.5 4.7-.6 5.7-.4 1 .3 3.6-.2 5.7-1 2.2-.9 6.7-1.9 10.1-2.3 3.4-.3 6.4-1.1 6.7-1.6.3-.5 2.6-.6 5.2-.2 2.6.4 7.3.7 10.4.7zm3.8 4.5c0 .4-1.9 2.6-4.1 4.7l-4.2 4 3.4-4.7c3.2-4.4 4.9-5.8 4.9-4zm-53.2 1.9c-1 .2-2.8.2-4 0-1.3-.2-.5-.4 1.7-.4 2.2-.1 3.2.1 2.3.4zm24.3 3.1c-1.2 2.2-4.1 4.8-4.1 3.6 0-.8 4-5.4 4.7-5.4.2 0-.1.8-.6 1.8zm-86.3.8c-.9.9-2.2 1.4-3 1.1-.8-.3-.4-.8 1.2-1.5 3.5-1.5 3.7-1.4 1.8.4zm137.6 3.4c-2.4 3.6-3.5 4.3-11.3 6.6-8.9 2.7-12.9 4.1-19.3 6.8-7.2 3.1-4.6-.1 4-4.9 8.6-4.8 25.5-12.3 28-12.4.7-.1.2 1.5-1.4 3.9zm-97.3 3c2.5 1.4 2.4 2.9-.6 6.2-2.9 3.3-3.1 3.4-3.8.8-.3-1.1-1.2-2-2.1-2-1.1 0-1.6-.9-1.6-3 0-2.7.3-3 3.1-3 1.7 0 3.9.5 5 1zm29.6-.4c-.3.3-1.2.4-1.9.1-.8-.3-.5-.6.6-.6 1.1-.1 1.7.2 1.3.5zm308.3 1.9c-.7.8-1.7 1.5-2.3 1.5-.5 0-.2-.9.8-2 2.1-2.3 3.5-1.9 1.5.5zm-207.2 5c0 1.6-.2 1.5-.8-.5-1.1-3.4-1.1-6 0-3.5.5 1.1.8 2.9.8 4zm186.6-2.6c-.2.3-1.2-.3-2.2-1.3-1.6-1.7-1.6-1.8.5-.5 1.2.7 2 1.5 1.7 1.8zm-197.7 5.8c-.2 1.6-.4.3-.4-2.7s.2-4.3.4-2.8c.2 1.6.2 4 0 5.5zm-7.2 5.8c0 4.7-1.7 5.9-4.3 3.3-1.8-1.8-1.4-3 .7-1.9 1.5.9 2 .7 2.4-.9.3-1 .1-2-.5-2.2-.5-.2-.6-1.1-.2-2.1 1-2.7 1.8-1.1 1.9 3.8zm229.2-3.9c-.3.3-1.2.4-1.9.1-.8-.3-.5-.6.6-.6 1.1-.1 1.7.2 1.3.5zM134 252.8c0 .4 4.6.6 10.1.4 8-.4 10-.2 9.4.8-.6 1 .5 1.1 5.2.6 7-.8 7.3-.5 7.3 8 0 5.2-.1 5.4-2.7 5.4-7.8 0-36-2.3-37.3-3.1-1.1-.6-1.1-.8-.2-.9.9 0 1.1-.7.7-2-.9-2.7.3-2.5 1.5.2.7 1.9.9 1.6.9-1.9.1-2.3-.3-4.5-.9-4.8-.5-.3-1-.1-1 .5 0 .7-.7.5-1.6-.4-.8-.9-1.2-2-.9-2.6.7-1.2 9.5-1.4 9.5-.2zm388.3-.1c-.7.2-2.1.2-3 0-1-.3-.4-.5 1.2-.5 1.7 0 2.4.2 1.8.5zm-194.9 3.4c-.9 1-2.7 1.9-3.8 1.9-1.9 0-1.8-.3.9-2.4 3.4-2.7 5.5-2.4 2.9.5zm177.6-1.7c0 .8-.4 1.8-1 2.1-.5.3-1-.3-1-1.4 0-1.2.5-2.1 1-2.1.6 0 1 .6 1 1.4zm11.7-.8c-.3.3-1.2.4-1.9.1-.8-.3-.5-.6.6-.6 1.1-.1 1.7.2 1.3.5zm-15.4 1.1c-.7.2-2.1.2-3 0-1-.3-.4-.5 1.2-.5 1.7 0 2.4.2 1.8.5zm42.7 1.2c0 .4-1.7 1.3-3.7 2-2.1.7-4.5 1.5-5.3 1.8-2.5.9 1-2.3 4.4-4.1 2.9-1.4 4.6-1.3 4.6.3zm-36.4 0c-.4.5 0 1.2.6 1.4.8.3.6.6-.4.6-1.8.1-2.4-1-1.1-2.2.9-1 1.5-.8.9.2zm19.1 3.8c-.3 1-.5.2-.5-1.7s.2-2.7.5-1.8c.2 1 .2 2.6 0 3.5zm-12.4-3c-.7.2-1.9.2-2.5 0-.7-.3-.2-.5 1.2-.5s1.9.2 1.3.5zm4 2.3c-.3 1.1-.8 2-1.2 1.9-1.6-.2-7.5-2.8-6.4-2.8.6-.1 2.3.3 3.7.9 2.1.7 2.6.6 2.6-.5 0-.8.4-1.5.9-1.5s.7.9.4 2zm-10.2 2.7c1.3 1.6 1.2 1.7-.3.4-1.7-1.3-2.2-2.1-1.4-2.1.2 0 1 .8 1.7 1.7zm16.9 2.8c.1-1.8.4-2.3.7-1.2.6 2.3-1.6 8.9-2.8 8.2-.5-.4-.9-1.1-.9-1.6 0-.6.5-.7 1-.4.7.4.9-.9.6-3.7-.4-3.5-.4-3.8.3-1.3l.9 3 .2-3zm-17.9 16.3c-.9 5.4-1.6 0-1.1-8.3l.4-9 .6 7.5c.3 4.1.3 8.5.1 9.8zM512 267c.7 1.4.6 1.9-.6 2.4s-1.5.2-1-1c.4-.9.1-2.4-.6-3.2-1-1.2-1-1.4-.1-.8.7.4 1.7 1.5 2.3 2.6zm-180 1c0 .5-1.2 1-2.7.9l-2.8-.1 2.5-.8c1.4-.4 2.6-.8 2.8-.9.1-.1.2.3.2.9zm170 4.5c-1.5 3.9-2.3 2.5-.8-1.6.6-1.8 1.3-2.9 1.5-2.3.2.6-.1 2.4-.7 3.9zm-176.7-2.8c-.7.2-2.1.2-3 0-1-.3-.4-.5 1.2-.5 1.7 0 2.4.2 1.8.5zm-6 1c-.7.2-2.1.2-3 0-1-.3-.4-.5 1.2-.5 1.7 0 2.4.2 1.8.5zm-26.5 1c-1 .2-2.6.2-3.5 0-1-.3-.2-.5 1.7-.5s2.7.2 1.8.5zm11.1 1c-2.1 2.8-2.3 2.9-1.6 1.1.3-.9.1-1.9-.6-2.2-.7-.2-.1-.5 1.2-.5 2.1-.1 2.2.1 1 1.6zm28.8 1.5c-.3.8-.6.5-.6-.6-.1-1.1.2-1.7.5-1.3.3.3.4 1.2.1 1.9zm-11.9.1c2.1-.1 2.1 0 .6 1.2-1.1.8-1.5 2-1.1 3.4.4 1.6.2 2-.6 1.3-.7-.6-4-1.8-7.4-2.7-4.2-1.2-6.3-2.3-6.3-3.3 0-1.2 1-1.3 6.3-.7 3.4.5 7.2.8 8.5.8zm200.2 3.2c-2.5 4.1-6.7 6.6-10.7 6.4-2.7-.2-2.7-.2-.3-.6 5-.8 7.6-2.4 10-6.3 1.3-2.1 2.6-3.7 2.8-3.5.2.2-.6 2-1.8 4zm-212.5 5c3.9 6.1 4.1 6.5 2.1 6.5-.8 0-1.7.6-1.9 1.2-.4.8-.6.7-.6-.4-.1-.9-.4-2.5-.7-3.5-.6-1.6-.5-1.6.9.2 2.1 2.6 2.1 1.3.2-2.6-.9-1.7-2.1-2.7-2.7-2.3-.7.4-.8.3-.4-.4s.2-1.2-.3-1.2c-.6 0-1.1-.7-1.1-1.5 0-2.5.9-1.7 4.5 4zm21.9 4.1c-.9 3-2.1 5.7-2.5 6-.5.2-1.5-1-2.4-2.8l-1.6-3.3 2 2.3 2 2.3 1.5-5.2c.9-2.9 1.7-6.2 1.7-7.3.2-1.9.2-1.9.6.2.3 1.3-.3 4.8-1.3 7.8zm142.3-8c-.3.3-1.2.4-1.9.1-.8-.3-.5-.6.6-.6 1.1-.1 1.7.2 1.3.5zM328.5 285c-.9 4.1-1.7 3.3-.9-.9.4-1.7.9-3 1.1-2.7.3.2.2 1.9-.2 3.6zm-24.3 3.8c-.1 2.6-.5 6.4-.8 8.6-.5 2.9-.3 3.7.6 3.1.9-.6.9-.2 0 1.5-1 1.8-.9 2.4.1 3.1 2.2 1.4 7.7 1 11-.6 2.5-1.4 2.8-1.8 1.8-3.6-.6-1.1-.8-2.3-.5-2.6.4-.5 2.6 3.9 2.6 5.2 0 .3-1.3 1.1-3 2-5.4 2.8-14.6 1.3-18-3.1-1.4-1.9-1.4-1.9.7-.1 2 1.8 2.1 1.8 2.6 0 .8-2.8 1.7-9.3 1.9-14.5.1-2.6.4-4.5.7-4.2.3.2.4 2.6.3 5.2zm-143.9-2.1c-.7.2-2.1.2-3 0-1-.3-.4-.5 1.2-.5 1.7 0 2.4.2 1.8.5zM126 289c4.1.6 10.4 1.4 14 1.9 3.6.5 5.4.9 4 1-4.9.2-27.5-3-28.5-4.1-.7-.7-.4-.9 1-.5 1.1.3 5.4 1.1 9.5 1.7zm170.3 2.5c-1.4 4.3-3.3 6.8-3.3 4.5 0-1.2 3.8-9 4.5-9 .2 0-.3 2-1.2 4.5zm-108.2-.5c7.3 0 11.9.4 11.9 1s-4.8 1-12.4 1c-10.4 0-12.6-.3-13.7-1.7-1.2-1.5-1.2-1.6.4-1 1 .4 7.2.7 13.8.7zm109.5 5.7c-1.1 1.1-1.7-.4-.9-2.3.7-1.8.8-1.8 1.1-.1.2 1 .1 2.1-.2 2.4zM324 299c-1.8 2.3-3.5 3.9-3.7 3.6-.3-.3 1-2.3 2.8-4.5 1.8-2.3 3.4-3.9 3.7-3.6.2.2-1 2.2-2.8 4.5z"/><path d="M177.7 210.2c-5.7 3.1-6.8 4.6-2.5 3.4 2-.5 10.1-6.7 8.8-6.6-.3 0-3.1 1.5-6.3 3.2zM134.1 258.2c.5 1.8.6 4.1.3 5-.4 1.3 0 1.8 1.5 1.8 1.7 0 2.1-.6 2.1-3.4 0-4.7-.9-6.6-3-6.6-1.6 0-1.7.4-.9 3.2zm2.8 2.1c-.1 3.1-.1 3.1-.9.7-1.1-3.6-1.1-5.2 0-4.5.6.3 1 2.1.9 3.8zM139.4 260c.1 3.1.5 5 1.3 5 .7 0 .9-1.4.6-4.3-.8-6.1-2-6.6-1.9-.7zM144 257c0 .5.7 1 1.6 1 1.2 0 1.4.5.9 1.7-1.7 4.1-1.8 6.3-.1 6.3.9 0 1.6-.5 1.6-1 0-.6-.4-1-1-1s-.5-.9.2-2.4c.6-1.4.8-3.2.5-4-.7-1.7-3.7-2.2-3.7-.6zM149.2 260.7c.2 3.7.7 4.9 2.1 5.1 1.6.3 1.8-.3 1.5-4.5-.2-3.7-.7-4.9-2.1-5.1-1.6-.3-1.8.3-1.5 4.5zm2.8-.2c0 1.9-.4 3.5-1 3.5-.5 0-1-1.6-1-3.5s.5-3.5 1-3.5c.6 0 1 1.6 1 3.5zM154.9 256.9c.8.5 1.1 1.6.8 2.5-.3.8-.2 1.8.3 2.1.6.4 1 1.3 1 2.2 0 1.3-.2 1.3-1.7.2-1.4-1.2-1.6-1.2-1.1.1.2.8 1.2 1.6 2.1 1.8 1.3.3 1.6-.6 1.5-4.7-.1-4.5-.4-5.1-2.2-5.1-1.6 0-1.8.2-.7.9zM159.2 260.7c.3 4.1.6 4.8 2.6 5.1 1.7.3 2.2-.1 2.2-2 0-1.3-.5-3-1-3.8-.7-1.1-1-.6-1 2s-.3 3.1-1 2c-1.5-2.4-1.2-6 .6-6 .8 0 1.2-.5.9-1-.3-.6-1.3-1-2.1-1-1.2 0-1.4 1.1-1.2 4.7zM307 274.3c0 1.2 10.5 3.6 11.4 2.7.5-.5.8-1.2.5-1.4-.7-.7-11.9-1.9-11.9-1.3zM503.5 174.4c2.2 2 4.9 4.2 6 4.8 2.6 1.4 1.1 0-5-4.6l-5-3.8 4 3.6zM520.9 184c8.6 3.4 10 4.5 8.3 6.2-1.9 1.9-1.4 2.8 1.3 2.8 2.9 0 3.1-.7.9-3.9-1.7-2.4-13.3-8.1-16.2-8.1-1 .1 1.6 1.4 5.7 3z"/></svg>