<svg xmlns="http://www.w3.org/2000/svg" width="920" height="520" version="1.0" viewBox="0 0 690 390"><path d="M381 141.1c-13.5.3-26.7.9-29.5 1.2-20.7 2.5-38.8 5.1-37.6 5.5.7.2-2.2 2.2-6.5 4.4-4.4 2.3-9.2 5-10.9 6.1-4 2.8-17.5 13.9-17.5 14.4 0 .2 2.4-1 5.3-2.7 10.8-6.4 17.2-9.2 24.9-11.2 7.6-1.9 8-1.9 9.9-.2 1 .9 1.9 2.3 1.9 3 0 2 4.4 2.7 12.1 2 3.8-.3 6.9-.3 6.9 0s-.8 1.8-1.8 3.2c-1.1 1.5-3.4 5.4-5.2 8.8l-3.3 6.1-32.1.6c-17.7.2-33.2.9-34.6 1.4-1.4.5-4.3.6-6.5.3l-3.9-.5 11.4-9.1c16.7-13.3 26.8-19.5 39.9-24.5 1.3-.5 2.1-1.2 1.8-1.5-1.1-1.1-14.3 3.8-23.7 8.8-5.2 2.8-13.7 7.8-18.9 11-5.6 3.6-11.9 6.7-15.8 7.8-3.5 1-6.6 2-6.9 2.3-.3.3-.9 2.2-1.4 4.2-.8 3.5-.7 3.7 1.3 3.1 3-.8 59.5 1.4 63.2 2.5 2 .5.6.7-4.5.3-4.1-.3-13.1.1-20 .9-7.1.9-16.2 1.3-21 1-9.5-.6-48.1 1.9-66.5 4.3-6.6.8-16.5 2.5-22 3.7-5.5 1.1-11.5 2.1-13.2 2.2-1.8 0-3.3.4-3.3.8 0 .5-.4.5-1 .2-.5-.3-1-.1-1 .5s-.4.8-1 .5c-.5-.3-1-.1-1 .5 0 .7-.7.9-1.6.6-1-.4-1.3-.2-.8.6s.2.9-1 .5c-1.6-.6-7.6 1.7-7.6 2.9 0 .2 1.4-.3 3.1-1.1 4.6-2.5 4.6-1.1-.2 2.6-2.3 1.9-6.5 5.6-9.3 8.2l-5.1 4.8 7-.6c4-.3 6.5-.2 5.8.3-1 .6-1 1.2.2 2.8.8 1 1.4 2.6 1.5 3.4 0 .8-.6.4-1.3-1-1.6-3.1-7.5-4.7-12.3-3.2-3.5 1-4.3.5-2.2-1.6.8-.8.8-1.5 0-2.5-1-1.1-.7-2 .9-4.1 1.2-1.5 1.9-2.9 1.6-3.2-.8-.9-4.8 1.6-4.2 2.6.3.5.1 1.1-.5 1.5-.5.3-1 1.9-1 3.4 0 4.4-1.2 9.1-2.2 9.1-.6 0-.8-.7-.4-1.5.6-1.8-.5-2-2.1-.4-.6.6-.9 1.8-.6 2.6.3.7.2 1.3-.3 1.2-2.2-.4-3.4.4-6.6 4.3-3.2 4-3.4 4.7-2.9 9.3.4 3.2 1.1 4.9 1.9 4.7.7-.1 1.2.2 1.2.8 0 .5-.7 1-1.6 1-1.3 0-1.5.7-1.1 3.2 3 17.4 3.5 23.3 2.1 26-2 3.9-.9 5.8 3.5 5.8 7.9 0 11.3 1.1 12.3 4.1.9 2.5 1.5 2.8 9.5 3.9 5.3.8 10.6 2.3 13.7 3.8l5.1 2.6-6.5.8c-9.4 1.1-31.2 4.8-32.2 5.4-1.5 1-.8 3.1 1.5 4.1 4.8 2.2 23.1 4.9 51.2 7.5 19.2 1.8 106 1.8 125 0 15.5-1.5 35.1-4.2 52.2-7.2 17.3-3 129.5-16.8 151.3-18.5 10.7-.9 22.9-2 27-2.6 8.2-1.1 18-3.8 18-5 0-.8-3.7-1.9-6.8-1.9-2.2 0-2.2 0-.6-3.2 1-1.8 2.5-5.8 3.4-8.8 1.6-5 2.3-5.8 8.6-10 3.7-2.5 7.6-5.7 8.7-7.1 1.8-2.5 2-3.7 1.5-9.9-.1-1.4.5-6.7 1.2-11.8 1.7-11.4 1.7-11.4-9.8-11-6.4.2-8.5-.1-9.2-1.2-1.6-2.4-1.2-2.9 3.3-4 9.5-2.5 10.7-3.2 10.7-6.3 0-1.6.4-2.6 1-2.2 1 .6-1.6-3.7-5.6-9.3-.9-1.3-2.2-2.1-3-1.8-.8.3-1.4-.1-1.4-.8 0-.8.5-1.6 1.1-1.8.6-.2.8-1.4.4-2.9-.6-2.2-1.8-2.9-9.4-5.2-6.2-1.9-13.3-5.2-23.7-11.3-8.2-4.7-18.4-10.4-22.7-12.6-22.1-11.1-49.1-19.4-66.1-20.4-5-.2-10.9-.6-13.1-.7-2.2-.2-15 0-28.5.4zm99.4 22.4c8.6 3.7 8.8 3.9 6 4.8-1.6.5-3.6 1.1-4.4 1.4-1 .3.2 1.3 3.3 2.9 2.6 1.3 4.7 2.7 4.7 3 0 .2-2.3.2-5.2-.2-3.3-.5-5.8-1.4-6.8-2.6-1.5-1.9-1.8-1.9-9.5-.3-8.1 1.7-11.4 2.3-17.2 3.2-1.8.3-3.3.9-3.3 1.4 0 .5-2.6.9-5.7.9s-8.5.5-12 1.1c-3.5.6-6.6 1-6.8.7-.2-.2-.5-1.6-.7-3.1-.5-3.6-2-4.5-9.1-5.3-3.3-.4-5.6-1.1-5.4-1.7.4-1.3 10.6-3.5 16.5-3.6 3.9-.1 4.2-.3 3.3-2-.9-1.5-.7-2 1.2-2.5 4.6-1.2 14-.6 15.8 1 1 .9 3.2 1.6 5 1.7 3 .2 3.4.6 4.6 4.7l1.2 4.5-.5-5.3c-.5-4.2-.3-5.2.9-5.2.9 0 2.2-.6 2.9-1.3 3.7-3.7 9.5-3.2 21.2 1.8zm-70.4-1.1c0 .9-2.2 6.6-2.6 6.6-.2 0-2.3-1.2-4.6-2.7-3.8-2.3-4-2.7-2.3-3.4 2-.8 9.5-1.2 9.5-.5zm-41 4.2c4.5 1.8 4.6 2.1 2.4 5.3-1.8 2.5-2 2.3-5.3-3.2-2.6-4.2-2.5-4.3 2.9-2.1zm47.1 8.3c-1.5 1.5-4 2.1-10.8 2.5-4.8.4-10.3.9-12.1 1.2-3.2.5-3.3.4-2.7-1.8.4-1.3 1.3-2.6 1.9-3 .6-.4 6.6-.8 13.4-.8 12 0 12.2 0 10.3 1.9zm-64 2.7c-1.7 1.4-2.9 3-2.5 3.5.3.5-.7.9-2.3.9-2.1 0-2.4-.3-1.3-1 .8-.5 1.1-1.2.7-1.7-.4-.4.7-1.5 2.5-2.4 5-2.5 6.3-2.2 2.9.7zm66.6-1c-.3.3-1.2.4-1.9.1-.8-.3-.5-.6.6-.6 1.1-.1 1.7.2 1.3.5zm-171.7.8c0 .2-.7.9-1.5 1.6-1.3 1.1-1.4 1-.9-.4.5-1.4 2.4-2.3 2.4-1.2zm62.3 9.3c-.7.2-2.1.2-3 0-1-.3-.4-.5 1.2-.5 1.7 0 2.4.2 1.8.5zm-11.6 2.9c-.3.3-1.2.4-1.9.1-.8-.3-.5-.6.6-.6 1.1-.1 1.7.2 1.3.5zm-37.4 2.1c-.7.2-2.1.2-3 0-1-.3-.4-.5 1.2-.5 1.7 0 2.4.2 1.8.5zm-6 1c-.7.2-2.1.2-3 0-1-.3-.4-.5 1.2-.5 1.7 0 2.4.2 1.8.5zm-6 1c-.7.2-1.9.2-2.5 0-.7-.3-.2-.5 1.2-.5s1.9.2 1.3.5zm-5 1c-.7.2-1.9.2-2.5 0-.7-.3-.2-.5 1.2-.5s1.9.2 1.3.5zm-4.6.9c-.3.3-1.2.4-1.9.1-.8-.3-.5-.6.6-.6 1.1-.1 1.7.2 1.3.5zm-4 1c-.3.3-1.2.4-1.9.1-.8-.3-.5-.6.6-.6 1.1-.1 1.7.2 1.3.5zm-4 1c-.3.3-1.2.4-1.9.1-.8-.3-.5-.6.6-.6 1.1-.1 1.7.2 1.3.5zm-5.2 1.4c-1.1.5-2.7.9-3.5.9-.9 0-.8-.4.5-.9 1.1-.5 2.7-.9 3.5-.9.9 0 .8.4-.5.9zm-10 3c-12.8 5.5-25.5 10.7-25.5 10.4 0-1.1 24.1-11.4 26.5-11.3.6 0 .1.4-1 .9zm246.8 1.7c-1.3.2-3.5.2-5 0-1.6-.2-.5-.4 2.2-.4 2.8 0 4 .2 2.8.4zm48.9 7.4 5.7 2.6-2.1 2-2.1 2.1-8.1-4-8.1-4-10 .7c-26.6 1.7-139.9 14.4-142.5 16-.4.2-1.9-.8-3.4-2.4l-2.7-2.8 10.8-.8c5.9-.4 13.1-.9 15.8-1 2.8-.2 6.6-.6 8.5-1 3.9-.7 26.9-3.4 57-6.6 10.7-1.1 27.4-2.2 37-2.5 9.6-.3 17.7-.8 18-1.1.2-.2 5-.3 10.5 0 8 .2 11.2.8 15.7 2.8zM284 217c0 .5-1.2 1-2.7.9-2.5 0-2.6-.1-.8-.9 2.7-1.2 3.5-1.2 3.5 0zm-131.6 1.8c-.6 2.2-5.4 4.6-5.4 2.7 0-1.3 3.7-4.5 5.1-4.5.4 0 .5.8.3 1.8zm120.8-1.2c3.6.5 4.5 1 4.1 2.3-.2.9-1.5 2.1-2.9 2.8-1.3.6-2.2.7-1.8.2.3-.5-.3-.9-1.3-.9-.9 0-3.8 2-6.3 4.5-4.3 4.3-4.9 4.5-13 5.6-7.5 1-8.7 1-11.7-.6-2.7-1.5-3.5-1.6-4.9-.4-1.5 1.2-1.4 1.4.3 2 1.1.5-.7.9-4.7 1-3.6.1-8.1.3-10 .4-1.9.1-4.3-.5-5.3-1.4-1-.9-4.2-1.8-7-2.2-4.4-.5-4-.6 3.3-.7 4.8 0 7.4.3 6 .7-2.2.6-2.3.8-.7 1.4 3.3 1.2 13.4.8 14.6-.6.6-.8.7-1.8.3-2.2-.4-.5-.2-.5.4-.2.7.4 1.9-.5 2.9-1.9 1.3-2 1.4-2.8.4-4-1.4-1.7-.5-1.8 2.4-.3 1.2.7 3 1.2 4.2 1.3 1.4.1 1.9.7 1.7 2.1-.2 1.1-.8 2.1-1.3 2.3-.5.2-.9.8-.9 1.3 0 .6 3.2.9 8.1.6 7.7-.4 8.2-.5 12-4.3 4.6-4.5 3.8-5.3-2.5-2.6-3.4 1.6-4.3 1.7-3.9.6.3-.9-.2-1.4-1.8-1.5-2.2 0-2.3-.1-.4-.8 1.1-.5 2.5-.5 3.1 0 1.5 1.2 7.2-1.2 6.7-2.8-.4-1 1.3-1.9 4.3-2.2.6 0 3.2.2 5.6.5zM156 220.8c0 .4 1.9.6 4.3.4 5.7-.4 12.9 1 13.5 2.7.3 1 0 1.1-1.6.2-3.3-1.8-3.5-1.3-.9 1.9 1.4 1.6 2.9 3.9 3.2 5 .4 1.1 1.1 1.8 1.6 1.5.5-.4.9.5.9 1.9s-.4 2.6-1 2.6c-.5 0-1-.7-1-1.5 0-2.6-3.9-9.4-5.9-10.5-3.5-1.8-14.2-1.2-17.9 1-1.8 1.1-3.7 1.8-4.2 1.5-.5-.3-1.6.2-2.4 1.1-1.5 1.4-1.6 1.3-1.6-1.7 0-2.5.3-2.9 1.3-2.1 1.4 1.2 5.8-.5 8.7-3.4 1.6-1.5 3-1.8 3-.6zm136.7 5.2c-6.1 6.5-6.2 6.6-10.7 7.5-1.9.4-8.9 3-15.5 5.8-11.8 5-12.2 5.1-22.5 5.2-5.8.1-18.9.5-29.2 1-17.3.7-18.8.7-18.8-.9 0-.9-1.1-2.1-2.5-2.8-1.5-.7-2.9-2.7-3.9-5.5-1.5-4.3-1.5-4.4.7-5.2 2.6-1 3.7.2 3.7 4.2 0 1.5.9 3.8 2.1 5 2 2.1 2.7 2.2 27.6 2.5l25.5.3 6.7-3.4c3.8-1.9 12.4-6.9 19.3-11 12.1-7.3 14.3-8.2 20-8.2 2.5 0 2.5.2-2.5 5.5zm-47.1-2.4c1.8 1.4 1.8 1.4-.6.3-3.1-1.4-3.6-1.9-2.4-1.9.6 0 1.9.7 3 1.6zm-17.3 1.1c-.7.2-1.9.2-2.5 0-.7-.3-.2-.5 1.2-.5s1.9.2 1.3.5zm-40.6.9c-.3.3-1.2.4-1.9.1-.8-.3-.5-.6.6-.6 1.1-.1 1.7.2 1.3.5zm-7.4 1.6c-1.8.6-3.3 1.6-3.3 2.2 0 .6-.5.4-1-.4-1.1-1.7.9-2.9 5-2.8 2.2 0 2.1.1-.7 1zm339.7 10-.5 9.3-.3-8.3c-.1-4.5-.6-8.2-.9-8.2-.4 0-1.4.6-2.3 1.2-.9.7-.5.3.8-1 1.3-1.2 2.6-2.2 3-2.2.4 0 .5 4.2.2 9.2zm9.6-6c2.3 2.7 2.4 2.9.3 1-3.3-2.8-3.7-2.8-4.2.5-.3 2.3-.4 2.1-.6-1 0-2 .3-3.7.7-3.7.5 0 2.1 1.5 3.8 3.2zm-383.6.2c0 .3-.7 1.2-1.6 2.1-1.4 1.3-1.9 1.4-2.5.3-1.4-2.2-1-2.8 1.6-2.8 1.4 0 2.5.2 2.5.4zm-29.1 1.5c.8.6 1 1.4.5 2.2-.5.8-.9 2-1 2.6-.2 1.3-2.8 4.3-3.7 4.3-1.4 0-1.5-3.5-.2-6.6 1.5-3.6 2.1-3.9 4.4-2.5zm46.8-.3c-.3.3-1.2.4-1.9.1-.8-.3-.5-.6.6-.6 1.1-.1 1.7.2 1.3.5zm7 0c-.3.3-1.2.4-1.9.1-.8-.3-.5-.6.6-.6 1.1-.1 1.7.2 1.3.5zm341.8 4.5c-1.6 2.9-1.5 3.2 1 6.5 1.4 1.9 3 3.4 3.6 3.4.5 0 .9.5.9 1.1 0 .6-1.7-.3-3.7-2-2.7-2.3-3.9-2.7-4.5-1.8-.5.7-.6-.1-.2-1.8.7-3.3 3.2-8.5 4-8.5.2 0-.3 1.4-1.1 3.1zm-196.2-1.4-4.3.4.1 11.5c0 6.4-.2 11.8-.5 12.2-.3.3-.6-2.8-.6-6.9 0-9.3-.9-14.9-2.4-14.9-1.4 0-8.9 7.7-10.5 10.7-1.4 2.8-1.4 4.3 0 4.3.6 0 .9-.7.5-1.5-.6-1.8 2.7-5.5 4.9-5.5 1.2 0 1.5 1.3 1.5 5.5 0 3.7-.4 5.5-1.2 5.5-.7 0 .2 1 2 2.1 5.7 3.7 2.7 3.1-3.8-.7-6.4-3.7-7.8-3.6-8.1.6 0 .9-.3 1-.5.3-.9-2 5.2-13.8 9.1-17.7 4.7-4.7 8.8-6.6 14-6.4l4 .1-4.2.4zm13.5 4.7c1.3 1.1 2.8 3 3.4 4.1.5 1.1-.3.6-1.9-1.1-1.5-1.8-4-3.9-5.5-4.9l-2.7-1.7-1 3.9c-.5 2.1-1.3 7.1-1.7 11.1-.4 4-1 7.4-1.3 7.6-.6.4 0-8 1.5-20.1l.5-4.3 3.2 1.6c1.8.9 4.3 2.6 5.5 3.8zm-185.1.8c-.2 1.3-.4.5-.4-1.7-.1-2.2.1-3.2.4-2.3.2 1 .2 2.8 0 4zm380 2c-.2 1.3-.4.3-.4-2.2s.2-3.5.4-2.3c.2 1.3.2 3.3 0 4.5zm8.7-.7c-1.1.8-3.9 2.9-6.4 4.6-4 2.9-3.8 2.6 1.5-2.3 3.3-3.1 6.2-5.2 6.4-4.6.1.5-.5 1.6-1.5 2.3zm2.3 2.7c-.3.8-.6.5-.6-.6-.1-1.1.2-1.7.5-1.3.3.3.4 1.2.1 1.9zm-358.6 4.5c-.9 1.5-1 1.3-1.1-1.3 0-1.7.3-3.4.8-3.8 1.1-1.2 1.4 3.2.3 5.1zm-40.6-2.7c-2.8.3 3.1.6 13 .6l18-.1.3 7.4.3 7.4-17.3-.7c-9.5-.4-18.7-1-20.4-1.4-2.6-.6-2.9-1-2.3-3.2l.6-2.5 1.1 2.5 1.1 2.5-.1-2.5c-.1-3.7-1.5-9-1.8-6.5-.1 1.5-.3 1.6-.7.5-.3-.8-1-1.8-1.6-2.1-2.5-1.7.9-2.9 7.6-2.7 7 .1 7.1.1 2.2.8zm372.2 2.2c-.3.7-.5.2-.5-1.2s.2-1.9.5-1.3c.2.7.2 1.9 0 2.5zm-172.4.8c.5 2.1.3 2.3-14.3 11.5-6.3 4-4.6 2 2.3-2.6 7.6-5.2 11-8.7 10.3-10.6-.3-.8-.2-1.2.3-.9.5.3 1.1 1.5 1.4 2.6zm-84.5-.8c.7.7 1.2 1.9 1.2 2.7 0 1.1-.4 1-2-.4-2.1-1.9-2.6-3.5-1.2-3.5.4 0 1.3.5 2 1.2zm285 6.5c-.1 3.7-.2 4-.5 1.5-.5-3.6-1.6-3.9-6.8-1.8-1.9.8-3.5 1.3-3.5 1.1 0-.5 9.2-5.4 10.3-5.5.4 0 .6 2.1.5 4.7zm-17.3-1.1c0 1.6-.6 1.9-3.5 1.7-1.9-.2-4.5-.3-5.7-.3-1.4 0-2.3-.6-2.3-1.5 0-1.9.4-1.9 4.1.1 3.6 1.8 6.2 1.2 5.2-1.2-.4-1.2-.2-1.5.8-1.2.8.3 1.4 1.3 1.4 2.4zm-181.8.6c-.3.8-.6.5-.6-.6-.1-1.1.2-1.7.5-1.3.3.3.4 1.2.1 1.9zm187 .4c-.3.3-1.2.4-1.9.1-.8-.3-.5-.6.6-.6 1.1-.1 1.7.2 1.3.5zM111 258c0 .5-.5 1-1.1 1-.5 0-.7-.5-.4-1 .3-.6.8-1 1.1-1 .2 0 .4.4.4 1zm227.7 1.2c-.3.8-.6.5-.6-.6-.1-1.1.2-1.7.5-1.3.3.3.4 1.2.1 1.9zm-46 5.5c-.3 1-.5.4-.5-1.2 0-1.7.2-2.4.5-1.8.2.7.2 2.1 0 3zm216 .5c-.3.7-.5.2-.5-1.2s.2-1.9.5-1.3c.2.7.2 1.9 0 2.5zm27 0c-.3.7-.5.2-.5-1.2s.2-1.9.5-1.3c.2.7.2 1.9 0 2.5zm-239.3-.7c-.4.8-1 1.5-1.5 1.5-.4 0-.6-.7-.3-1.5.4-.8 1-1.5 1.5-1.5.4 0 .6.7.3 1.5zm234.6 2.2c2.1 3.4 2.3 3.6 3.1 1.8.5-1.3.8-1.5.8-.5.1 1.7-1.6 4.7-2.2 4-.9-1-4.7-9-4.3-9 .2 0 1.4 1.7 2.6 3.7zm-191.2 4c-.1 4.9-.2 5.2-.5 1.6-.4-4.2-.4-4.2-3.9-3.7-1.9.2-4.8 1.1-6.4 1.9-1.6.8-4.8 1.4-7.2 1.4l-4.3-.1 4.5-.8c2.5-.5 7.2-2 10.5-3.4s6.3-2.5 6.8-2.6c.4 0 .6 2.6.5 5.7zm180.9-3.5c-.3.8-.6.5-.6-.6-.1-1.1.2-1.7.5-1.3.3.3.4 1.2.1 1.9zm-208.2.8c.8 1.3-1.4 4.2-2.6 3.4-.5-.3-.9-1.4-.9-2.5 0-2 2.4-2.6 3.5-.9zm197.2 1.2c-.3.8-.6.5-.6-.6-.1-1.1.2-1.7.5-1.3.3.3.4 1.2.1 1.9zM300 270.5c5.6 1.7 7 2.3 4 1.9-7.8-1.1-12-1.2-12-.3 0 .5.7.9 1.5.9 1.7 0 1.9 1.8.5 4-.8 1.2-1 1.2-1-.5s-.2-1.7-1-.5c-.7 1.1-1 .2-1-3.3 0-2.6.1-4.7.3-4.7.1 0 4 1.2 8.7 2.5zm214-.7c0 .5-.6 1.6-1.3 2.6-1.3 1.7-1.4 1.8-2 .2-.4-.9-.3-1.5.2-1.2.5.3 1.1-.1 1.5-.9.6-1.6 1.6-2 1.6-.7zm5.7 1.4c-.3.8-.6.5-.6-.6-.1-1.1.2-1.7.5-1.3.3.3.4 1.2.1 1.9zm-198.9 3.2c1.5.8 4.3 3.6 6.1 6.3 4.5 6.2 8.1 10 8.1 8.3 0-.7.3-1.1.6-.8.3.4 0 1.6-.6 2.8-1.1 2.1-1.5 1.7-6.5-6.1-3.4-5.4-6.4-8.8-8.6-10-1.9-1-3-1.8-2.6-1.9.4 0 2 .6 3.5 1.4zm198 2.8c-.3 4-.1 4.3 2.7 4.9l3 .7-2.7.1c-1.8.1-3.8-.9-5.6-2.7-1.5-1.5-2-2.1-1.1-1.4 1.6 1.3 1.8 1 2.4-2.2 1-4.9 1.7-4.5 1.3.6zm11.6-.4 1.8-2.3-1.4 2.4c-.8 1.4-2.5 3.2-3.9 4-2.2 1.5-2.3 1.4-1.1-.1.7-.9 1.1-2.8.7-4.5l-.5-2.8 1.3 2.8 1.4 2.8 1.7-2.3zm-43.4 1.9c0 1.3-.9 1.5-6.1.9-3.4-.3-9.2-.6-12.8-.7l-6.6-.1 4.5-.9c2.5-.5 7.5-.7 11.2-.5 3.8.3 7 .1 7.3-.5.9-1.3 2.5-.1 2.5 1.8zm-180.2 1c-.6 1.6-1 4.1-1 5.8.1 2.5 0 2.7-.7 1-.7-1.7-1.2-1.2-3.7 3.7-1.5 3.2-3.1 5.8-3.4 5.8-.7 0-4-6.6-4-7.8.1-.4.8.6 1.7 2.2l1.5 2.9 2-2.4c1-1.3 3.2-5 4.9-8.2 3.1-6 4.6-7.7 2.7-3zm31.9.5c-.3.7-.5.2-.5-1.2s.2-1.9.5-1.3c.2.7.2 1.9 0 2.5zm-46 2c-.3.7-.5.2-.5-1.2s.2-1.9.5-1.3c.2.7.2 1.9 0 2.5zm-134.4-1.5c-.7.2-1.9.2-2.5 0-.7-.3-.2-.5 1.2-.5s1.9.2 1.3.5zm162.8 9.8c2.7 5.7 4.9 10.8 4.9 11.3 0 3-13.7 5.5-18 3.2-1.9-1-1.8-1.4 1.5-10.6 1.9-5.3 3.6-10.6 3.6-11.8.1-1.7.2-1.8.6-.3.2.9-.3 3.9-1.1 6.5-2.5 7.5-4.3 15.1-3.8 15.7 1.8 1.7 15.2-.4 15.2-2.4 0-1.3-3.2-9.5-5.9-15.6-1.7-3.6-2.7-6.5-2.5-6.5.3 0 2.8 4.7 5.5 10.5zm71.3-9.6c1.9.7-15.6 3.1-22.4 3.1-3-.1-3.2-.2-1.7-1.1 3.9-2.3 20-3.6 24.1-2zm-55.4 4.8c-1.1 1.7-1.1 1.7-.6 0 .3-1 .6-2.4.7-3 0-.9.2-.9.5 0 .3.7 0 2-.6 3zm-137.9-.3-2.4 1.3 2.9 1.2c2.8 1.1 2.7 1.1-1.1.6-2.2-.3-5.3-.5-6.9-.5-3.8 0-2.6-1.2 2.7-2.7 5.7-1.5 7.7-1.5 4.8.1zm94.6.8c-.3.8-.6.5-.6-.6-.1-1.1.2-1.7.5-1.3.3.3.4 1.2.1 1.9zm-139.4 2.5c-.7.2-2.1.2-3 0-1-.3-.4-.5 1.2-.5 1.7 0 2.4.2 1.8.5zm53.2 5.9c7.8.6 8.5.8 5 1.4-2.2.4-8.2 1-13.2 1.4l-9.2.6 1.1-2.5c.9-2.1 1.7-2.4 4.2-2.1 1.7.3 7.2.8 12.1 1.2zm124.6 1.2c-.5.9-1.9 2.6-3.2 3.7-1.7 1.5-1.5 1 .7-1.7 3.2-4.1 4-4.8 2.5-2zm-28.4 5.8c1.7 1.4 1.6 1.4-.4.4-1.3-.6-2.7-2-3.3-3.3-1-2-1-2.1.4-.4.8 1 2.3 2.5 3.3 3.3z"/><path d="M156.7 248.7c1.8.2 5 .2 7 0 2.1-.2.7-.4-3.2-.4-3.8 0-5.5.2-3.8.4zM135.1 249.5c0 .5.6 3.2 1.4 6 1.4 5 1.4 5 1.4 1.3.1-4.8 1-6.8 2.6-6.2 1 .4 1.1 1.3.4 3.7-1.4 4.9-1.1 5.7 1.9 5.7 2.5-.1 2.6-.1.8-1.5-1.5-1.2-1.7-1.9-.8-4.3 1.3-3.9.1-5.7-3.2-4.8-1.4.3-2.6 1.2-2.7 1.9 0 .6-.4.3-.9-.8s-.9-1.6-.9-1zM146.5 253.7c.1 2.1.3 4.4.4 5 .1.7 1 1.3 2.2 1.3 1.9 0 2-.4 1.4-4.3-.9-5.1-1.2-5.7-3-5.7-1 0-1.3 1.1-1 3.7zm2.2 3.5c-.3.8-.6.5-.6-.6-.1-1.1.2-1.7.5-1.3.3.3.4 1.2.1 1.9zM151 252.4c0 1.4.5 2.8 1.1 3.2.6.3.9 1.5.6 2.5-.9 3.5 1.1 3 2.3-.5.8-2.6.8-4.1 0-5.6-1.5-2.8-4-2.6-4 .4zm3 1.2c0 .8-.5 1.2-1 .9-.6-.4-.8-1.1-.5-1.6.9-1.4 1.5-1.1 1.5.7zM156.8 251.2c-.3.7.1 1.9.9 2.6 1.5 1.6 1.8 5.2.3 5.2-.5 0-1 .4-1 1 0 .5 1.1 1 2.5 1s2.5-.5 2.5-1c0-.6-.4-1-.9-1-.6 0-1.1-1.9-1.3-4.2-.3-4-2.2-6.2-3-3.6zM162.2 254.4c0 4.8 2 7.8 3.9 5.9 1.6-1.6-.3-9.7-2.3-10.1-1.3-.3-1.6.6-1.6 4.2zm2.8-1.4c0 .5-.2 1-.4 1-.3 0-.8-.5-1.1-1-.3-.6-.1-1 .4-1 .6 0 1.1.4 1.1 1zm-.3 5.2c-.3.8-.6.5-.6-.6-.1-1.1.2-1.7.5-1.3.3.3.4 1.2.1 1.9zM132 254.6c0 .5.6 1.6 1.3 2.3 1 1.1 1 1.3 0 .7-1.5-.8-1.8 1-.3 1.9 1.8 1.1 2.3-2.6.6-4.3-.9-.9-1.6-1.2-1.6-.6zM264.8 189.7c.6.2 1.8.2 2.5 0 .6-.3.1-.5-1.3-.5-1.4 0-1.9.2-1.2.5z"/></svg>